<?xml version="1.0" encoding="UTF-8"?>
<svg width="241px" height="141px" viewBox="0 0 241 141" version="1.1" xmlns="http://www.w3.org/2000/svg" xmlns:xlink="http://www.w3.org/1999/xlink">
    <title>Group 7</title>
    <g id="Page-1" stroke="none" stroke-width="1" fill="none" fill-rule="evenodd">
        <g id="Anuual-Sales-Event-2021-03-19" transform="translate(-238.000000, -1474.000000)" fill="#000000" fill-rule="nonzero">
            <g id="Group" transform="translate(-1.000000, 799.000000)">
                <g id="Group-7" transform="translate(239.000000, 699.000000)">
                    <path d="M153.567375,100.48875 C165.874313,100.48875 168.434156,93.7470096 168.484122,75.6799577 L168.484875,58.554 C168.484875,47.11725 165.832875,40.238625 154.727625,40.238625 C148.097625,40.238625 144.69975,42.724875 142.8765,45.045375 C140.804625,47.697375 139.5615,51.924 139.5615,59.299875 L139.5615,78.7755 C139.5615,91.621125 140.307375,100.48875 153.567375,100.48875 Z M153.98175,94.438875 C149.67225,94.438875 148.34625,91.952625 147.766125,90.21225 C147.206719,88.4541161 147.032618,86.0794936 147.020896,82.1223672 L147.02025,58.8855 C147.02025,50.76375 148.34625,46.371375 154.230375,46.371375 C160.929043,46.371375 161.024738,52.2496311 161.026125,58.6087308 L161.026125,78.1125 C161.026125,90.0465 160.031625,94.438875 153.98175,94.438875 Z M187.2975,99.66 L187.2975,71.31675 L203.292375,71.31675 L203.292375,64.935375 L187.2975,64.935375 L187.2975,47.697375 L205.69575,47.697375 L205.69575,41.15025 L179.921625,41.15025 L179.921625,99.66 L187.2975,99.66 Z M220.28175,99.66 L220.28175,71.31675 L236.276625,71.31675 L236.276625,64.935375 L220.28175,64.935375 L220.28175,47.697375 L238.68,47.697375 L238.68,41.15025 L212.905875,41.15025 L212.905875,99.66 L220.28175,99.66 Z" id="OFF"></path>
                    <path d="M145.17711,14.1882 C151.925414,14.1882 152.596206,8.81737556 152.615521,5.10174557 L152.61597,-8.93061 C152.61597,-13.08762 152.03253,-18.77616 145.03125,-18.77616 C137.740395,-18.77616 137.525958,-12.7302882 137.519651,-9.24057549 L137.519651,4.49175903 L137.519651,4.49175903 L137.521823,4.93544137 L137.521823,4.93544137 L137.527153,5.3779365 C137.602398,9.94152623 138.360876,14.1882 145.17711,14.1882 Z M147.94845,33.15 L173.03637,-18.33858 L169.68159,-18.33858 L144.37488,33.15 L147.94845,33.15 Z M144.95832,9.73947 C142.391184,9.73947 142.334137,8.20552701 142.33284,4.04683712 L142.33284,-8.93061 C142.33284,-12.28539 142.4787,-14.2545 145.03125,-14.2545 C147.534615,-14.2545 147.65105,-12.6632139 147.656466,-9.10132364 L147.65673,4.12386 C147.65673,8.42673 147.51087,9.73947 144.95832,9.73947 Z M172.52586,33.51465 C179.274164,33.51465 179.944956,28.1438256 179.964271,24.4281956 L179.96472,10.39584 C179.96472,6.23883 179.38128,0.55029 172.38,0.55029 C165.199613,0.55029 164.882831,6.41434147 164.868855,9.92552069 L164.86821,23.59617 C164.86821,23.9662625 164.869835,24.3363551 164.875903,24.7043865 L164.885498,25.144903 C165.006385,29.5375362 165.929505,33.51465 172.52586,33.51465 Z M172.30707,29.06592 C169.798278,29.06592 169.686776,27.6009094 169.68182,23.6527797 L169.68159,10.39584 C169.68159,7.04106 169.82745,5.07195 172.38,5.07195 C174.883365,5.07195 174.9998,6.66323606 175.005216,10.2251264 L175.00548,23.45031 C175.00548,27.75318 174.85962,29.06592 172.30707,29.06592 Z" id="%"></path>
                    <path d="M59.12634,99.45 L59.12634,86.34912 L21.20274,86.34912 L46.19784,44.46078 C57.0026895,26.3964223 57.5561595,15.1112025 57.5743896,8.33802162 L57.57492,7.91622 L57.57492,7.91622 C57.57492,-6.73608 52.40352,-23.8017 31.71792,-23.8017 C8.44662,-23.8017 7.23996,-4.49514 7.23996,4.29624 L7.23996,21.18948 L21.20274,21.18948 L21.20274,6.02004 C21.20274,-0.18564 21.71988,-10.0113 31.8903,-10.0113 C40.33692,-10.0113 43.26738,-4.32276 43.26738,6.02004 C43.26738,20.32758 41.19882,24.98184 31.0284,42.21984 L5.86092,84.7977 L5.86092,99.45 L59.12634,99.45 Z M97.73946,101.00142 C109.63368,101.00142 116.18412,96.69192 120.14886,90.31386 C124.377049,83.7178857 124.622762,72.3097539 124.63074,63.2529106 L124.63074,9.46764 C124.63074,-6.39132 121.18314,-12.42462 116.18412,-17.25126 C111.1851,-22.0779 103.25562,-23.8017 97.22232,-23.8017 C91.87854,-23.8017 83.6043,-22.59504 77.91576,-17.07888 C72.91674,-12.25224 69.8139,-5.87418 69.8139,12.05334 L69.8139,63.76734 C69.8139,75.3168 70.33104,86.69388 76.36434,93.24432 C80.67384,97.89858 87.39666,101.00142 97.73946,101.00142 Z M97.04994,87.55578 C86.01762,87.55578 84.81096,79.97106 84.81096,66.52542 L84.81096,9.29526 C84.81096,0.84864 85.15572,-10.18368 97.3947,-10.18368 C107.04798,-10.18368 109.4613,-4.15038 109.4613,9.64002 L109.4613,69.45588 C109.4613,79.28154 108.77178,87.55578 97.04994,87.55578 Z" id="20"></path>
                </g>
            </g>
        </g>
    </g>
</svg>