<svg xmlns="http://www.w3.org/2000/svg" width="155" height="19" viewBox="0 0 155 19">
    <g fill="#000" fill-rule="nonzero">
        <path d="M95.758.428l-7.608 15.89c-.808 1.665-2.377 2.568-4.469 2.568H65.186c-2.14 0-2.758-1.617-1.95-3.33L70.463.428h6.419L70.225 14.32c-.19.381 0 .619.38.619h11.079c.666 0 .903-.238 1.094-.666L89.434.428h6.324zM121.718.428h-17.735c-2.282 0-3.566.952-4.47 2.902L93.762 15.32c-.999 2.045-.048 3.567 2.14 3.567h17.972c2.092 0 3.66-.856 4.517-2.711l.57-1.142h-18.067c-.38 0-.523-.238-.333-.618l1.046-2.189c.238-.523.57-.666 1.046-.666h14.834c2.33 0 3.661-1.094 4.327-2.426l2.33-4.805c.332-.761.475-1.284.475-1.808-.047-1.332-1.189-2.093-2.9-2.093zm-3.804 4.377l-1.141 2.379c-.19.38-.475.57-.998.57h-11.982l1.426-2.95c.19-.427.476-.618 1.046-.618h11.269c.38 0 .475.381.38.619zM147.963 4.805l-1.188 2.474c-.238.475-.523.618-1.046.618h-12.267l1.474-2.997c.237-.476.523-.666 1.093-.666h11.506c.476-.048.523.333.428.57zm6.324-.476c.333-.761.475-1.284.475-1.808 0-1.38-1.14-2.093-2.852-2.093h-18.068c-2.282 0-3.566.952-4.47 2.902l-7.464 15.556h6.324l3.138-6.517c.237-.523.57-.666 1.046-.666h7.845c.475 0 .76.143.95.618l2.568 6.565h6.086l-2.9-7.326.475-.047c2.425-.19 3.947-1.19 4.802-2.902l2.045-4.282zM61.144.428H42.84c-1.997 0-3.376.809-4.232 2.664l-.57 1.19h18.448c.475 0 .57.285.428.618l-.951 1.998c-.238.523-.523.666-1.046.666H39.178c-1.664 0-3.186.856-3.899 2.426l-2.615 5.424c-.903 1.95 0 3.52 2.092 3.52h18.638c2.045 0 3.614-.904 4.47-2.569l5.753-11.988c.332-.761.475-1.285.475-1.808-.095-1.38-1.236-2.14-2.948-2.14zm-8.843 13.987c-.19.38-.428.618-.999.618H39.653c-.285 0-.523-.19-.332-.618l1.236-2.57c.237-.475.523-.618 1.046-.618H53.87l-1.57 3.188zM30.952.428H11.887c-1.665 0-3.281.714-4.137 2.474L.095 18.886h23.203c2.282 0 3.66-.951 4.421-2.52l1.57-3.283c.285-.571.475-1.047.475-1.57 0-1.19-.856-1.856-2.045-2.094 0 0 .714-.047 1.332-.237 1.474-.381 2.424-1.095 3.138-2.474l1.14-2.379c.334-.761.476-1.284.476-1.808 0-1.332-1.14-2.093-2.853-2.093zM22.3 14.415c-.19.428-.523.618-1.046.618H8.986c-.38 0-.523-.285-.38-.57l1.236-2.617c.19-.428.523-.619 1.046-.619h12.933l-1.522 3.188zm4.66-9.658l-.999 2.141c-.238.428-.475.619-1.046.619H11.982l1.33-2.76c.191-.428.524-.618 1.047-.618h12.267c.428-.048.475.285.333.618z"/>
    </g>
</svg>
